<svg viewBox="0 0 900 200" width="100%" height="100%" xmlns="http://www.w3.org/2000/svg" xmlns:xlink="http://www.w3.org/1999/xlink" version="1.1">
  <path d="M0 71L15 77.2C30 83.3 60 95.7 90 105C120 114.3 150 120.7 180 116.3C210 112 240 97 270 91.5C300 86 330 90 360 88.2C390 86.3 420 78.7 450 83C480 87.3 510 103.7 540 109.7C570 115.7 600 111.3 630 104.2C660 97 690 87 720 81C750 75 780 73 810 77.2C840 81.3 870 91.7 885 96.8L900 102L900 201L885 201C870 201 840 201 810 201C780 201 750 201 720 201C690 201 660 201 630 201C600 201 570 201 540 201C510 201 480 201 450 201C420 201 390 201 360 201C330 201 300 201 270 201C240 201 210 201 180 201C150 201 120 201 90 201C60 201 30 201 15 201L0 201Z" fill="#b91c1c" stroke-linecap="round" stroke-linejoin="miter" />
</svg>

