<svg viewBox="0 0 900 200" width="100%" height="100%" xmlns="http://www.w3.org/2000/svg" xmlns:xlink="http://www.w3.org/1999/xlink" version="1.1">
  <path d="M0 125L15 116.3C30 107.7 60 90.3 90 89.2C120 88 150 103 180 103C210 103 240 88 270 80.8C300 73.7 330 74.3 360 82.2C390 90 420 105 450 112.7C480 120.3 510 120.7 540 117C570 113.3 600 105.7 630 99.8C660 94 690 90 720 91.2C750 92.3 780 98.7 810 99.8C840 101 870 97 885 95L900 93L900 0L885 0C870 0 840 0 810 0C780 0 750 0 720 0C690 0 660 0 630 0C600 0 570 0 540 0C510 0 480 0 450 0C420 0 390 0 360 0C330 0 300 0 270 0C240 0 210 0 180 0C150 0 120 0 90 0C60 0 30 0 15 0L0 0Z" fill="#b91c1c" stroke-linecap="round" stroke-linejoin="miter" />
</svg>

