<svg viewBox="0 0 500 100" width="100%" height="100%" xmlns="http://www.w3.org/2000/svg" xmlns:xlink="http://www.w3.org/1999/xlink" version="1.1">
  <path d="M0 59L9.3 55C18.7 51 37.3 43 55.8 41.5C74.3 40 92.7 45 111.2 45.2C129.7 45.3 148.3 40.7 166.8 41.5C185.3 42.3 203.7 48.7 222.2 50.2C240.7 51.7 259.3 48.3 277.8 45.7C296.3 43 314.7 41 333.2 41.3C351.7 41.7 370.3 44.3 388.8 45.5C407.3 46.7 425.7 46.3 444.2 43.8C462.7 41.3 481.3 36.7 490.7 34.3L500 32L500 101L490.7 101C481.3 101 462.7 101 444.2 101C425.7 101 407.3 101 388.8 101C370.3 101 351.7 101 333.2 101C314.7 101 296.3 101 277.8 101C259.3 101 240.7 101 222.2 101C203.7 101 185.3 101 166.8 101C148.3 101 129.7 101 111.2 101C92.7 101 74.3 101 55.8 101C37.3 101 18.7 101 9.3 101L0 101Z" fill="#0f766e" />
  <path d="M0 47L9.3 47.3C18.7 47.7 37.3 48.3 55.8 49.7C74.3 51 92.7 53 111.2 56.2C129.7 59.3 148.3 63.7 166.8 66.2C185.3 68.7 203.7 69.3 222.2 68C240.7 66.7 259.3 63.3 277.8 59.8C296.3 56.3 314.7 52.7 333.2 52.8C351.7 53 370.3 57 388.8 60.8C407.3 64.7 425.7 68.3 444.2 67.3C462.7 66.3 481.3 60.7 490.7 57.8L500 55L500 101L490.7 101C481.3 101 462.7 101 444.2 101C425.7 101 407.3 101 388.8 101C370.3 101 351.7 101 333.2 101C314.7 101 296.3 101 277.8 101C259.3 101 240.7 101 222.2 101C203.7 101 185.3 101 166.8 101C148.3 101 129.7 101 111.2 101C92.7 101 74.3 101 55.8 101C37.3 101 18.7 101 9.3 101L0 101Z" fill="#004559" />
  <path d="M0 76L9.3 76C18.7 76 37.3 76 55.8 75.8C74.3 75.7 92.7 75.3 111.2 75.3C129.7 75.3 148.3 75.7 166.8 74.5C185.3 73.3 203.7 70.7 222.2 70.2C240.7 69.7 259.3 71.3 277.8 72.2C296.3 73 314.7 73 333.2 71.7C351.7 70.3 370.3 67.7 388.8 67.3C407.3 67 425.7 69 444.2 71.3C462.7 73.7 481.3 76.3 490.7 77.7L500 79L500 101L490.7 101C481.3 101 462.7 101 444.2 101C425.7 101 407.3 101 388.8 101C370.3 101 351.7 101 333.2 101C314.7 101 296.3 101 277.8 101C259.3 101 240.7 101 222.2 101C203.7 101 185.3 101 166.8 101C148.3 101 129.7 101 111.2 101C92.7 101 74.3 101 55.8 101C37.3 101 18.7 101 9.3 101L0 101Z" fill="#111827" />
</svg>
