<svg id="visual" viewBox="0 0 1920 300" width="1920" height="300" xmlns="http://www.w3.org/2000/svg" xmlns:xlink="http://www.w3.org/1999/xlink" version="1.1"><path d="M0 107L45.7 100.2C91.3 93.3 182.7 79.7 274.2 87.7C365.7 95.7 457.3 125.3 548.8 134C640.3 142.7 731.7 130.3 823 112C914.3 93.7 1005.7 69.3 1097 67.3C1188.3 65.3 1279.7 85.7 1371.2 104.8C1462.7 124 1554.3 142 1645.8 137.7C1737.3 133.3 1828.7 106.7 1874.3 93.3L1920 80L1920 301L1874.3 301C1828.7 301 1737.3 301 1645.8 301C1554.3 301 1462.7 301 1371.2 301C1279.7 301 1188.3 301 1097 301C1005.7 301 914.3 301 823 301C731.7 301 640.3 301 548.8 301C457.3 301 365.7 301 274.2 301C182.7 301 91.3 301 45.7 301L0 301Z" fill="#715df2"></path><path d="M0 195L45.7 186.2C91.3 177.3 182.7 159.7 274.2 142C365.7 124.3 457.3 106.7 548.8 102.5C640.3 98.3 731.7 107.7 823 125.7C914.3 143.7 1005.7 170.3 1097 168.8C1188.3 167.3 1279.7 137.7 1371.2 119.7C1462.7 101.7 1554.3 95.3 1645.8 99C1737.3 102.7 1828.7 116.3 1874.3 123.2L1920 130L1920 301L1874.3 301C1828.7 301 1737.3 301 1645.8 301C1554.3 301 1462.7 301 1371.2 301C1279.7 301 1188.3 301 1097 301C1005.7 301 914.3 301 823 301C731.7 301 640.3 301 548.8 301C457.3 301 365.7 301 274.2 301C182.7 301 91.3 301 45.7 301L0 301Z" fill="#2649ae"></path><path d="M0 235L45.7 235C91.3 235 182.7 235 274.2 237.7C365.7 240.3 457.3 245.7 548.8 244C640.3 242.3 731.7 233.7 823 218.3C914.3 203 1005.7 181 1097 182C1188.3 183 1279.7 207 1371.2 215.7C1462.7 224.3 1554.3 217.7 1645.8 204.7C1737.3 191.7 1828.7 172.3 1874.3 162.7L1920 153L1920 301L1874.3 301C1828.7 301 1737.3 301 1645.8 301C1554.3 301 1462.7 301 1371.2 301C1279.7 301 1188.3 301 1097 301C1005.7 301 914.3 301 823 301C731.7 301 640.3 301 548.8 301C457.3 301 365.7 301 274.2 301C182.7 301 91.3 301 45.7 301L0 301Z" fill="#002f66"></path><path d="M0 277L45.7 269.3C91.3 261.7 182.7 246.3 274.2 238.5C365.7 230.7 457.3 230.3 548.8 236C640.3 241.7 731.7 253.3 823 247C914.3 240.7 1005.7 216.3 1097 219.2C1188.3 222 1279.7 252 1371.2 265.8C1462.7 279.7 1554.3 277.3 1645.8 273.5C1737.3 269.7 1828.7 264.3 1874.3 261.7L1920 259L1920 301L1874.3 301C1828.7 301 1737.3 301 1645.8 301C1554.3 301 1462.7 301 1371.2 301C1279.7 301 1188.3 301 1097 301C1005.7 301 914.3 301 823 301C731.7 301 640.3 301 548.8 301C457.3 301 365.7 301 274.2 301C182.7 301 91.3 301 45.7 301L0 301Z" fill="#001122"></path></svg>